<svg width="192" height="192" viewBox="0 0 192 192" fill="none" xmlns="http://www.w3.org/2000/svg">
<g clip-path="url(#clip0_16_2)">
<path d="M136.199 59.2826L136.165 59.2611L136.122 59.2367L135.904 59.1129L135.079 58.6438C134.369 58.2398 133.355 57.6634 132.141 56.9736C129.714 55.5941 126.488 53.7612 123.289 51.9468C120.615 50.4369 119.113 47.4779 119.403 44.419L119.404 44.4139C119.705 41.354 121.786 38.7672 124.716 37.8072C131.374 35.6263 138.639 36.175 144.886 39.3756C151.123 42.5717 155.864 48.1013 158.038 54.783L159.047 57.8838C160.041 60.9399 159.023 64.2766 156.48 66.2485C153.94 68.2188 150.475 68.3788 147.764 66.6632L147.757 66.6584C144.757 64.7352 141.851 62.8809 139.695 61.5074C138.617 60.8207 137.727 60.2542 137.106 59.8594L136.387 59.4024L136.199 59.2826Z" fill="white" stroke="white" stroke-width="3"/>
<path d="M81.0759 25.8872L81.0749 25.8871C69.3463 18.4279 55.4421 18.5071 44.506 23.6008C33.562 28.6983 25 39.158 25 52.7499V138.72C25 152.313 33.5632 162.767 44.5072 167.862C55.4012 172.933 69.2395 173.03 80.9399 165.669L152.272 125.507L152.307 125.487L152.34 125.466L152.433 125.407C172.905 112.411 172.908 84.6822 152.443 71.6817L152.441 71.6806L152.44 71.6798L152.433 71.6759L81.0949 25.8995L81.0899 25.8963L81.0759 25.8872Z" fill="white" stroke="white" stroke-width="3" stroke-miterlimit="2.2041"/>
<path fill-rule="evenodd" clip-rule="evenodd" d="M45.1393 24.9606C55.6567 20.0618 69.0138 19.9941 80.2704 27.1529L80.2847 27.162L151.629 72.9422C151.632 72.9441 151.635 72.946 151.638 72.9479C171.176 85.3592 171.173 111.733 151.629 124.14L151.536 124.2L80.1713 164.38C68.9359 171.464 55.6268 171.383 45.1402 166.502C34.6161 161.603 26.5 151.619 26.5 138.72V52.7499C26.5 39.8523 34.6152 29.8624 45.1393 24.9606ZM48.6648 32.5823C40.4884 36.3907 34.8737 43.7473 34.8737 52.7499V138.72C34.8737 147.722 40.4874 155.073 48.6639 158.879C56.8478 162.689 67.1636 162.695 75.7906 157.218L75.884 157.159L147.243 116.982C161.503 107.85 161.473 89.1342 147.153 80.0432L147.135 80.0322L75.7879 34.2503L75.7809 34.2458C67.1564 28.7645 56.8457 28.7718 48.6648 32.5823Z" fill="#2F2F2F"/>
<path fill-rule="evenodd" clip-rule="evenodd" d="M68.0325 76.0152C75.842 76.0152 82.1529 82.3692 82.1529 90.1842C82.1529 104.036 70.9877 115.241 57.1839 115.219H28.6475V76.0152H68.0325ZM64.2234 100.512C59.6775 101.137 55.4901 97.9482 54.8671 93.3872C54.2441 88.8252 57.4222 84.6232 61.9681 83.9982C66.514 83.3722 70.7015 86.5622 71.3244 91.1242C71.9474 95.6852 68.7693 99.8872 64.2234 100.512Z" fill="#2F2F2F"/>
<path fill-rule="evenodd" clip-rule="evenodd" d="M121.965 76.0152C114.177 76.0152 107.866 82.3692 107.866 90.1842C107.866 104.036 119.032 115.241 132.793 115.219H153.984C156.285 115.219 158.48 114.309 160.105 112.678C161.731 111.068 162.638 108.865 162.638 106.557V89.9732C162.638 86.2872 161.182 82.7292 158.565 80.1032C155.968 77.4765 152.422 76.0152 148.729 76.0152H121.965ZM123.771 99.8232C128.317 100.448 132.504 97.2602 133.127 92.6982C133.754 88.1082 130.576 83.9052 126.026 83.3092C121.48 82.6842 117.293 85.8732 116.67 90.4352C116.047 94.9972 119.225 99.1982 123.771 99.8232Z" fill="#2F2F2F"/>
<path fill-rule="evenodd" clip-rule="evenodd" d="M124.028 50.6397C121.88 49.4274 120.66 47.042 120.896 44.5585C121.138 42.0952 122.813 40.0092 125.18 39.2336C131.46 37.1763 138.312 37.6947 144.201 40.7119C150.089 43.7292 154.562 48.9479 156.612 55.2499L157.621 58.3507C158.42 60.8071 157.602 63.4812 155.564 65.0626C153.525 66.644 150.747 66.774 148.567 65.394C142.563 61.5455 136.939 57.9739 136.939 57.9739C136.939 57.9739 130.427 54.2697 124.028 50.6397Z" fill="#2F2F2F"/>
<path fill-rule="evenodd" clip-rule="evenodd" d="M73.0153 50.6517C75.1703 49.4193 76.4102 47.0403 76.1546 44.5503C75.8989 42.0603 74.2239 39.9745 71.8563 39.1989C65.5761 37.1416 58.7646 37.6729 52.8828 40.67C47.0009 43.6671 42.5477 48.8923 40.5041 55.1742L39.4822 58.3153C38.6831 60.7717 39.5007 63.4457 41.5396 65.0271C43.5785 66.6085 46.3559 66.7385 48.5366 65.3585C54.5401 61.51 60.1647 57.9387 60.1647 57.9387C60.1647 57.9387 66.6368 54.2882 73.0153 50.6517Z" fill="#2F2F2F"/>
<path fill-rule="evenodd" clip-rule="evenodd" d="M100.044 113.596C100.044 112.755 99.7099 111.956 99.1299 111.364C98.5379 110.773 97.7389 110.441 96.9019 110.441C94.8539 110.441 92.1749 110.441 90.1279 110.441C89.2899 110.441 88.4919 110.773 87.8999 111.364C87.3069 111.956 86.9849 112.755 86.9849 113.596C86.9849 114.427 87.3199 115.236 87.8999 115.828C88.4919 116.419 89.2899 116.751 90.1279 116.751C92.1749 116.751 94.8539 116.751 96.9019 116.751C97.7389 116.751 98.5379 116.419 99.1299 115.828C99.7099 115.236 100.044 114.437 100.044 113.596Z" fill="#2F2F2F" stroke="#2F2F2F" stroke-width="0.410115" stroke-miterlimit="1.5" stroke-linecap="round" stroke-linejoin="round"/>
<path fill-rule="evenodd" clip-rule="evenodd" d="M75.8848 123.475C75.8848 123.475 77.853 125.771 80.9506 127.135C82.8386 127.967 85.1076 128.458 87.5946 128.057C90.7426 127.546 93.0106 126.122 94.5996 124.257C96.3076 122.242 97.2176 119.655 97.3466 116.928C97.4466 114.812 95.8186 113.007 93.7096 112.907C91.6016 112.806 89.8036 114.441 89.7036 116.567C89.6536 117.559 89.4036 118.542 88.7736 119.274C88.2446 119.895 87.4356 120.296 86.3866 120.467C85.5066 120.607 84.7076 120.397 84.0376 120.096C82.5996 119.464 81.6596 118.421 81.6596 118.421C80.2709 116.827 77.853 116.657 76.2543 118.051C74.6556 119.444 74.4959 121.88 75.8848 123.475Z" fill="#2F2F2F"/>
<path fill-rule="evenodd" clip-rule="evenodd" d="M105.386 118.421C105.386 118.421 104.457 119.464 103.008 120.096C102.339 120.387 101.539 120.607 100.66 120.467C99.6107 120.296 98.8007 119.895 98.2717 119.274C97.6417 118.532 97.3927 117.559 97.3427 116.567C97.2427 114.451 95.4437 112.806 93.3357 112.907C91.2277 113.007 89.5987 114.812 89.6987 116.928C89.8287 119.655 90.7287 122.242 92.4467 124.257C94.0257 126.122 96.3037 127.546 99.4507 128.057C101.939 128.458 104.207 127.967 106.096 127.135C109.203 125.771 111.162 123.475 111.162 123.475C112.551 121.88 112.391 119.444 110.792 118.051C109.193 116.657 106.775 116.827 105.386 118.421Z" fill="#2F2F2F"/>
</g>
<defs>
<clipPath id="clip0_16_2">
<rect width="192" height="192" fill="white"/>
</clipPath>
</defs>
</svg>
